<?xml version="1.0" encoding="UTF-8"?>
<svg xmlns="http://www.w3.org/2000/svg" version="1.1" xmlns:xlink="http://www.w3.org/1999/xlink" viewBox="0 0 500 500">
  <!-- Generator: Adobe Illustrator 29.8.1, SVG Export Plug-In . SVG Version: 2.1.1 Build 2)  -->
  <defs>
    <style>
      .st0 {
        fill: #00c4ff;
      }

      .st1 {
        fill: url(#radial-gradient32);
      }

      .st1, .st2, .st3, .st4, .st5, .st6, .st7, .st8, .st9, .st10, .st11, .st12, .st13, .st14, .st15, .st16, .st17, .st18, .st19, .st20, .st21, .st22, .st23, .st24, .st25, .st26, .st27, .st28, .st29, .st30, .st31, .st32, .st33, .st34, .st35, .st36, .st37, .st38 {
        mix-blend-mode: color-dodge;
      }

      .st39 {
        fill: url(#radial-gradient2);
      }

      .st39, .st40, .st41 {
        mix-blend-mode: screen;
      }

      .st2 {
        fill: url(#radial-gradient35);
      }

      .st42 {
        fill: url(#radial-gradient41);
        mix-blend-mode: overlay;
      }

      .st3 {
        fill: url(#radial-gradient8);
        opacity: .95;
      }

      .st40 {
        fill: url(#radial-gradient3);
      }

      .st4 {
        fill: url(#radial-gradient34);
      }

      .st5 {
        fill: url(#radial-gradient11);
        opacity: .53;
      }

      .st6 {
        fill: url(#radial-gradient37);
      }

      .st7 {
        fill: url(#radial-gradient30);
      }

      .st41 {
        fill: url(#radial-gradient1);
      }

      .st8 {
        fill: url(#radial-gradient36);
      }

      .st10 {
        fill: url(#radial-gradient6);
        opacity: .76;
      }

      .st11 {
        fill: url(#radial-gradient25);
        opacity: .75;
      }

      .st12 {
        fill: url(#radial-gradient38);
      }

      .st13 {
        fill: url(#radial-gradient18);
        opacity: .83;
      }

      .st14 {
        fill: url(#radial-gradient24);
        opacity: .96;
      }

      .st15 {
        fill: url(#radial-gradient12);
      }

      .st15, .st19 {
        opacity: .89;
      }

      .st16 {
        fill: url(#radial-gradient5);
        opacity: .67;
      }

      .st17 {
        fill: url(#radial-gradient26);
        opacity: .52;
      }

      .st43 {
        fill: url(#radial-gradient);
      }

      .st18 {
        fill: url(#radial-gradient20);
        opacity: .57;
      }

      .st44 {
        isolation: isolate;
      }

      .st19 {
        fill: url(#radial-gradient27);
      }

      .st20 {
        fill: url(#radial-gradient33);
      }

      .st21 {
        fill: url(#radial-gradient31);
      }

      .st22 {
        fill: url(#radial-gradient13);
        opacity: .94;
      }

      .st23 {
        fill: url(#radial-gradient16);
        opacity: .69;
      }

      .st24 {
        fill: url(#radial-gradient40);
      }

      .st25 {
        fill: url(#radial-gradient15);
        opacity: .56;
      }

      .st26 {
        fill: url(#radial-gradient22);
        opacity: .62;
      }

      .st27 {
        fill: url(#radial-gradient7);
        opacity: .74;
      }

      .st28 {
        fill: url(#radial-gradient28);
      }

      .st29 {
        fill: url(#radial-gradient10);
        opacity: .91;
      }

      .st30 {
        fill: url(#radial-gradient39);
      }

      .st31 {
        fill: url(#radial-gradient14);
        opacity: .77;
      }

      .st32 {
        fill: url(#radial-gradient23);
      }

      .st32, .st38 {
        opacity: .63;
      }

      .st33 {
        fill: url(#radial-gradient29);
      }

      .st34 {
        fill: url(#radial-gradient21);
        opacity: .8;
      }

      .st35 {
        fill: url(#radial-gradient17);
        opacity: .97;
      }

      .st36 {
        fill: url(#radial-gradient19);
        opacity: .78;
      }

      .st37 {
        fill: url(#radial-gradient9);
        opacity: .6;
      }

      .st38 {
        fill: url(#radial-gradient4);
      }
    </style>
    <radialGradient id="radial-gradient" cx="251.59" cy="248.59" fx="251.59" fy="248.59" r="420.01" gradientUnits="userSpaceOnUse">
      <stop offset="0" stop-color="#002f65"/>
      <stop offset=".33" stop-color="#00244f"/>
      <stop offset="1" stop-color="#000b19"/>
    </radialGradient>
    <radialGradient id="radial-gradient1" cx="249.34" cy="201.21" fx="249.34" fy="201.21" r="147.66" gradientUnits="userSpaceOnUse">
      <stop offset="0" stop-color="#484848"/>
      <stop offset=".43" stop-color="#222"/>
      <stop offset=".78" stop-color="#090909"/>
      <stop offset="1" stop-color="#000"/>
    </radialGradient>
    <radialGradient id="radial-gradient2" cx="250" cy="327.09" fx="250" fy="327.09" r="249.99" gradientTransform="translate(0 322.45) scale(1 .25)" gradientUnits="userSpaceOnUse">
      <stop offset="0" stop-color="#b2b2b2"/>
      <stop offset=".02" stop-color="#a4a4a4"/>
      <stop offset=".08" stop-color="#7d7d7d"/>
      <stop offset=".15" stop-color="#5b5b5b"/>
      <stop offset=".22" stop-color="#3f3f3f"/>
      <stop offset=".3" stop-color="#272727"/>
      <stop offset=".4" stop-color="#151515"/>
      <stop offset=".51" stop-color="#090909"/>
      <stop offset=".66" stop-color="#020202"/>
      <stop offset="1" stop-color="#000"/>
    </radialGradient>
    <radialGradient id="radial-gradient3" r="98" xlink:href="#radial-gradient2"/>
    <radialGradient id="radial-gradient4" cx="250.17" cy="-4679.89" fx="250.17" fy="-4679.89" r="202.63" gradientTransform="translate(10.49 594.64) scale(.96 .08)" gradientUnits="userSpaceOnUse">
      <stop offset="0" stop-color="#fff"/>
      <stop offset=".01" stop-color="#f7f7f7"/>
      <stop offset=".13" stop-color="#bebebe"/>
      <stop offset=".25" stop-color="#8b8b8b"/>
      <stop offset=".37" stop-color="#606060"/>
      <stop offset=".49" stop-color="#3d3d3d"/>
      <stop offset=".62" stop-color="#222"/>
      <stop offset=".74" stop-color="#0f0f0f"/>
      <stop offset=".87" stop-color="#030303"/>
      <stop offset="1" stop-color="#000"/>
    </radialGradient>
    <radialGradient id="radial-gradient5" cx="258.34" cy="-4376.63" fx="258.34" fy="-4376.63" r="151.92" gradientTransform="translate(-54.98 483.62) rotate(-15.42) scale(1.42 .04) skewX(-.02)" xlink:href="#radial-gradient4"/>
    <radialGradient id="radial-gradient6" cx="270.98" cy="-4219.1" fx="270.98" fy="-4219.1" r="214.58" gradientTransform="translate(74.27 525.3) rotate(-30.16) scale(1.16 .05)" xlink:href="#radial-gradient4"/>
    <radialGradient id="radial-gradient7" cx="290.59" cy="-4661.29" fx="290.59" fy="-4661.29" r="68.02" gradientTransform="translate(201.06 458.83) rotate(-61.62) scale(.68 .02) skewX(-.94)" xlink:href="#radial-gradient4"/>
    <radialGradient id="radial-gradient8" cx="306.02" cy="-4393.87" fx="306.02" fy="-4393.87" r="192.33" gradientTransform="translate(238.14 447.79) rotate(-76.94) scale(.66 .01) skewX(-.79)" xlink:href="#radial-gradient4"/>
    <radialGradient id="radial-gradient9" cx="282.89" cy="-3609.09" fx="282.89" fy="-3609.09" r="103.92" gradientTransform="translate(291.6 625.22) rotate(-75.72) scale(1.4 .04) skewX(-.04)" xlink:href="#radial-gradient4"/>
    <radialGradient id="radial-gradient10" cx="326.23" cy="-3302.22" fx="326.23" fy="-3302.22" r="203.92" gradientTransform="translate(457.05 408.31) rotate(-90) scale(.63 .06)" xlink:href="#radial-gradient4"/>
    <radialGradient id="radial-gradient11" cx="287.55" cy="-2955.46" fx="287.55" fy="-2955.46" r="124.54" gradientTransform="translate(421.5 517.51) rotate(-103.08) scale(1.23 .03) skewX(.11)" xlink:href="#radial-gradient4"/>
    <radialGradient id="radial-gradient12" cx="279.17" cy="-2730.37" fx="279.17" fy="-2730.37" r="110.64" gradientTransform="translate(363.37 593.47) rotate(-90) scale(1.42 .04) skewX(.06)" xlink:href="#radial-gradient4"/>
    <radialGradient id="radial-gradient13" cx="282.04" cy="-2216.68" fx="282.04" fy="-2216.68" r="261.34" gradientTransform="translate(444.31 363.25) rotate(-126.74) scale(.93 .03) skewX(.48)" xlink:href="#radial-gradient4"/>
    <radialGradient id="radial-gradient14" cx="272.97" cy="-2008.31" fx="272.97" fy="-2008.31" r="201.18" gradientTransform="translate(466.81 292.51) rotate(-142.73) scale(.89 .03) skewX(.46)" xlink:href="#radial-gradient4"/>
    <radialGradient id="radial-gradient15" cx="261.48" cy="-1891.13" fx="261.48" fy="-1891.13" r="117.34" gradientTransform="translate(477.97 216.34) rotate(-160.98) scale(.87 .03) skewX(.27)" xlink:href="#radial-gradient4"/>
    <radialGradient id="radial-gradient16" cx="166.26" cy="-3976.12" fx="166.26" fy="-3976.12" r="85.31" gradientTransform="translate(125.17 153.18) rotate(69.47) scale(.54 .03)" xlink:href="#radial-gradient4"/>
    <radialGradient id="radial-gradient17" cx="198.99" cy="-4328.01" fx="198.99" fy="-4328.01" r="121.28" gradientTransform="translate(33.69 149.79) rotate(49.9) scale(.81 .03) skewX(-.31)" xlink:href="#radial-gradient4"/>
    <radialGradient id="radial-gradient18" cx="220.71" cy="-4401.18" fx="220.71" fy="-4401.18" r="132" gradientTransform="translate(-56.98 173.27) rotate(35.82) scale(1.12 .04) skewX(-.23)" xlink:href="#radial-gradient4"/>
    <radialGradient id="radial-gradient19" cx="51.79" cy="-11592.85" fx="51.79" fy="-11592.85" r="226.22" gradientTransform="translate(135.68 276.22) rotate(-3.75) scale(.35 0) skewX(-1.42)" xlink:href="#radial-gradient4"/>
    <radialGradient id="radial-gradient20" cx="190.73" cy="-8304.05" fx="190.73" fy="-8304.05" r="220.05" gradientTransform="translate(67.35 306.39) rotate(-7.74) scale(.64 0) skewX(-.8)" xlink:href="#radial-gradient4"/>
    <radialGradient id="radial-gradient21" cx="248.03" cy="-6038.29" fx="248.03" fy="-6038.29" r="197.04" gradientTransform="translate(34.75 348.93) rotate(-10.9) scale(.87 .02) skewX(-.27)" xlink:href="#radial-gradient4"/>
    <radialGradient id="radial-gradient22" cx="267.27" cy="-5523.05" fx="267.27" fy="-5523.05" r="214.78" gradientTransform="translate(44.16 396.87) rotate(-20.54) scale(.98 .02)" xlink:href="#radial-gradient4"/>
    <radialGradient id="radial-gradient23" cx="280.65" cy="-5004.64" fx="280.65" fy="-5004.64" r="67.94" gradientTransform="translate(85.9 447.59) rotate(-32.17) scale(1.02 .02) skewX(.18)" xlink:href="#radial-gradient4"/>
    <radialGradient id="radial-gradient24" cx="289.98" cy="-4125.29" fx="289.98" fy="-4125.29" r="243.96" gradientTransform="translate(195.38 506.22) rotate(-48.31) scale(.94 .04) skewX(.14)" xlink:href="#radial-gradient4"/>
    <radialGradient id="radial-gradient25" cx="314.24" cy="-4577" fx="314.24" fy="-4577" r="186.59" gradientTransform="translate(212.4 427.34) rotate(-54.74) scale(.78 .02) skewX(.63)" xlink:href="#radial-gradient4"/>
    <radialGradient id="radial-gradient26" cx="324.4" cy="-3993.82" fx="324.4" fy="-3993.82" r="246.6" gradientTransform="translate(272.32 410.72) rotate(-69.81) scale(.68 .02) skewX(.69)" xlink:href="#radial-gradient4"/>
    <radialGradient id="radial-gradient27" cx="420.14" cy="-3895.05" fx="420.14" fy="-3895.05" r="113.29" gradientTransform="translate(293.03 310.2) rotate(-78.8) scale(.3 .02) skewX(1.44)" xlink:href="#radial-gradient4"/>
    <radialGradient id="radial-gradient28" cx="250" cy="119.06" fx="250" fy="119.06" r="31.88" gradientUnits="userSpaceOnUse">
      <stop offset="0" stop-color="#fff"/>
      <stop offset=".08" stop-color="#cbcbcb"/>
      <stop offset=".17" stop-color="#9c9c9c"/>
      <stop offset=".26" stop-color="#727272"/>
      <stop offset=".36" stop-color="#4f4f4f"/>
      <stop offset=".46" stop-color="#323232"/>
      <stop offset=".57" stop-color="#1b1b1b"/>
      <stop offset=".68" stop-color="#0c0c0c"/>
      <stop offset=".81" stop-color="#020202"/>
      <stop offset="1" stop-color="#000"/>
    </radialGradient>
    <radialGradient id="radial-gradient29" cx="322.58" cy="159.66" fx="322.58" fy="159.66" r="15.66" xlink:href="#radial-gradient28"/>
    <radialGradient id="radial-gradient30" cx="276.78" cy="249.52" fx="276.78" fy="249.52" r="18.52" xlink:href="#radial-gradient28"/>
    <radialGradient id="radial-gradient31" cx="250" cy="286.67" fx="250" fy="286.67" r="15.55" xlink:href="#radial-gradient28"/>
    <radialGradient id="radial-gradient32" cx="177.42" cy="244.34" fx="177.42" fy="244.34" r="18.04" xlink:href="#radial-gradient28"/>
    <radialGradient id="radial-gradient33" cx="193.84" cy="202" fx="193.84" fy="202" r="28" xlink:href="#radial-gradient28"/>
    <radialGradient id="radial-gradient34" cx="177.42" cy="159.66" fx="177.42" fy="159.66" r="23.33" xlink:href="#radial-gradient28"/>
    <radialGradient id="radial-gradient35" cx="222.35" cy="153.62" fx="222.35" fy="153.62" r="23.33" xlink:href="#radial-gradient28"/>
    <radialGradient id="radial-gradient36" cx="222.35" cy="249.52" fx="222.35" fy="249.52" r="35.65" xlink:href="#radial-gradient28"/>
    <radialGradient id="radial-gradient37" cx="303.57" cy="202" fx="303.57" fy="202" r="19.43" xlink:href="#radial-gradient28"/>
    <radialGradient id="radial-gradient38" cx="402.57" cy="201" fx="402.57" fy="201" r="32.59" xlink:href="#radial-gradient28"/>
    <radialGradient id="radial-gradient39" cx="173.57" cy="334" fx="173.57" fy="334" r="32.59" xlink:href="#radial-gradient28"/>
    <radialGradient id="radial-gradient40" cx="173.57" cy="70" fx="173.57" fy="70" r="32.59" xlink:href="#radial-gradient28"/>
    <radialGradient id="radial-gradient41" cx="251" cy="250" fx="251" fy="250" r="355.68" gradientUnits="userSpaceOnUse">
      <stop offset="0" stop-color="#29abe2"/>
      <stop offset=".23" stop-color="#2386b4"/>
      <stop offset=".46" stop-color="#1e678e"/>
      <stop offset=".67" stop-color="#1a5172"/>
      <stop offset=".86" stop-color="#184361"/>
      <stop offset="1" stop-color="#183f5c"/>
    </radialGradient>
  </defs>
  <g class="st44">
    <g id="Layer_1">
      <rect class="st43" width="500" height="500"/>
      <circle class="st41" cx="249.34" cy="201.21" r="147.66"/>
      <ellipse class="st39" cx="250" cy="403.96" rx="250" ry="62.29"/>
      <ellipse class="st40" cx="250" cy="403.96" rx="98" ry="24.42"/>
    </g>
    <g id="Layer_4">
      <g class="st9">
        <path class="st0" d="M95.78,202c-.05-3.56,1.26-7.04,3.22-9.99,1.96-2.98,4.55-5.49,7.29-7.74,5.58-4.43,11.92-7.79,18.4-10.66,13.04-5.68,26.8-9.48,40.67-12.45,13.9-2.92,27.98-4.89,42.11-6.22,14.13-1.32,28.33-1.97,42.52-2.05,14.2-.07,28.4.45,42.56,1.7,14.15,1.24,28.26,3.13,42.21,5.95,6.97,1.41,13.9,3.06,20.75,5.03,6.85,1.98,13.62,4.27,20.2,7.09,6.57,2.83,13,6.16,18.76,10.64,2.84,2.27,5.55,4.82,7.66,7.94,2.11,3.08,3.59,6.83,3.59,10.75.01,3.92-1.47,7.68-3.58,10.76-2.11,3.12-4.82,5.67-7.66,7.94-5.76,4.48-12.19,7.81-18.76,10.64-6.58,2.82-13.36,5.11-20.2,7.09-6.85,1.97-13.78,3.62-20.75,5.03-13.95,2.82-28.05,4.71-42.21,5.95-14.15,1.25-28.36,1.77-42.56,1.7-14.2-.08-28.39-.73-42.52-2.05-14.13-1.33-28.21-3.3-42.11-6.22-13.87-2.97-27.64-6.77-40.67-12.45-6.49-2.87-12.82-6.23-18.4-10.66-2.75-2.25-5.33-4.76-7.29-7.74-1.97-2.95-3.27-6.43-3.22-9.99.03,3.56,1.4,6.98,3.41,9.86,2,2.91,4.62,5.34,7.39,7.51,5.6,4.3,11.94,7.54,18.44,10.29,13.05,5.44,26.8,9,40.65,11.74,27.75,5.45,56.09,7.49,84.34,7.4,28.24-.24,56.56-2.36,84.22-8.02,13.79-2.86,27.48-6.55,40.37-12.07,6.41-2.79,12.65-6.06,18.08-10.31,2.67-2.15,5.16-4.53,7.02-7.3,1.87-2.75,3.05-5.89,3.05-9.09.01-3.2-1.18-6.35-3.04-9.09-1.86-2.77-4.35-5.16-7.02-7.3-5.42-4.25-11.66-7.53-18.08-10.31-12.89-5.52-26.57-9.21-40.37-12.07-27.66-5.65-55.97-7.79-84.22-8.02-28.25-.09-56.59,1.95-84.34,7.4-13.85,2.74-27.61,6.3-40.65,11.74-6.49,2.75-12.83,5.99-18.44,10.29-2.77,2.17-5.38,4.6-7.39,7.51-2.01,2.88-3.38,6.3-3.41,9.86Z"/>
      </g>
      <g class="st9">
        <path class="st0" d="M327.11,335.56c-3.06,1.82-6.72,2.43-10.26,2.2-3.56-.21-7.03-1.19-10.35-2.45-6.63-2.61-12.71-6.42-18.43-10.61-11.44-8.45-21.61-18.47-31.12-29-9.47-10.58-18.22-21.79-26.44-33.36-8.21-11.58-15.87-23.55-23.04-35.8-7.16-12.26-13.81-24.82-19.81-37.7-6-12.87-11.42-26.04-15.95-39.53-2.27-6.74-4.3-13.57-6.02-20.49-1.71-6.92-3.11-13.93-3.96-21.04-.83-7.1-1.17-14.34-.17-21.57.55-3.6,1.4-7.22,3.05-10.6,1.61-3.37,4.12-6.53,7.52-8.48,3.39-1.97,7.39-2.56,11.11-2.27,3.76.27,7.32,1.34,10.71,2.66,6.76,2.75,12.86,6.66,18.59,10.93,5.73,4.29,11.1,9.01,16.24,13.95,5.13,4.95,10.03,10.12,14.73,15.46,9.41,10.67,18.11,21.94,26.25,33.58,8.16,11.63,15.71,23.67,22.75,36,7.03,12.33,13.56,24.95,19.49,37.85,5.91,12.9,11.24,26.08,15.67,39.58,4.36,13.5,7.95,27.32,9.55,41.45.76,7.05,1.02,14.22-.03,21.27-.58,3.5-1.45,7-3.05,10.18-1.57,3.18-3.93,6.04-7.04,7.78,3.07-1.81,5.35-4.7,6.84-7.88,1.52-3.19,2.31-6.67,2.81-10.15.92-7,.56-14.11-.31-21.11-1.81-14.02-5.6-27.71-10.16-41.07-9.15-26.75-21.56-52.32-35.76-76.74-14.33-24.34-30.33-47.8-49.05-68.92-9.37-10.51-19.41-20.52-30.64-28.92-5.62-4.16-11.57-7.93-17.97-10.5-3.2-1.24-6.51-2.21-9.84-2.43-3.31-.24-6.63.3-9.4,1.91-2.78,1.59-4.91,4.2-6.35,7.18-1.47,2.99-2.29,6.34-2.82,9.73-.97,6.82-.68,13.86.11,20.81,1.66,13.93,5.31,27.62,9.73,41,8.93,26.78,21.24,52.37,35.16,76.94,14.05,24.51,29.99,48.04,48.58,69.34,9.3,10.63,19.26,20.76,30.49,29.33,5.63,4.25,11.6,8.12,18.13,10.82,3.26,1.31,6.67,2.36,10.2,2.64,3.5.3,7.14-.22,10.25-1.98Z"/>
      </g>
      <g class="st9">
        <path class="st0" d="M327.11,68.44c3.11,1.74,5.47,4.61,7.04,7.78,1.6,3.19,2.48,6.68,3.05,10.18,1.05,7.05.79,14.21.03,21.27-1.6,14.13-5.19,27.95-9.56,41.45-4.42,13.49-9.76,26.67-15.67,39.58-5.92,12.9-12.46,25.52-19.49,37.85-7.04,12.33-14.59,24.37-22.75,36.01-8.15,11.64-16.84,22.91-26.25,33.58-4.7,5.34-9.6,10.51-14.73,15.46-5.13,4.94-10.51,9.66-16.24,13.95-5.74,4.27-11.84,8.18-18.59,10.93-3.39,1.33-6.95,2.39-10.71,2.66-3.72.29-7.71-.31-11.11-2.27-3.4-1.95-5.91-5.12-7.52-8.48-1.65-3.39-2.5-7.01-3.05-10.6-1-7.23-.66-14.46.17-21.57.85-7.11,2.25-14.12,3.97-21.04,1.72-6.92,3.75-13.75,6.02-20.49,4.53-13.49,9.95-26.65,15.95-39.53,6-12.88,12.65-25.45,19.8-37.71,7.17-12.26,14.83-24.22,23.04-35.8,8.22-11.57,16.97-22.78,26.44-33.36,9.51-10.53,19.68-20.55,31.12-29,5.73-4.18,11.81-7.99,18.43-10.61,3.32-1.25,6.79-2.24,10.35-2.45,3.54-.23,7.2.38,10.26,2.2-3.1-1.75-6.75-2.28-10.25-1.98-3.52.28-6.93,1.33-10.2,2.64-6.52,2.7-12.5,6.57-18.13,10.82-11.23,8.58-21.2,18.71-30.49,29.34-18.59,21.31-34.53,44.83-48.58,69.34-13.92,24.58-26.23,50.16-35.16,76.94-4.42,13.38-8.06,27.07-9.73,41-.79,6.95-1.08,13.99-.11,20.81.52,3.39,1.34,6.74,2.82,9.73,1.45,2.99,3.58,5.59,6.35,7.19,2.77,1.61,6.09,2.15,9.4,1.91,3.33-.22,6.64-1.19,9.84-2.43,6.39-2.57,12.35-6.34,17.97-10.5,11.23-8.4,21.27-18.41,30.64-28.92,18.72-21.12,34.73-44.58,49.05-68.92,14.2-24.42,26.6-49.99,35.76-76.74,4.55-13.36,8.35-27.06,10.16-41.08.87-7,1.23-14.11.31-21.11-.5-3.48-1.29-6.96-2.81-10.15-1.49-3.18-3.77-6.08-6.84-7.88Z"/>
      </g>
    </g>
    <g id="Layer_2">
      <ellipse class="st38" cx="250" cy="202" rx="194" ry="17"/>
      <path class="st16" d="M457.72,144.72c.92,3.53-91.34,32.04-206.06,63.68-114.72,31.64-208.47,54.42-209.39,50.89-.92-3.53,91.34-32.04,206.06-63.68,114.72-31.64,208.47-54.42,209.39-50.89Z"/>
      <path class="st10" d="M464.72,77.25c2.68,4.66-91.28,64.28-209.87,133.18-118.59,68.9-216.89,120.97-219.57,116.32-2.68-4.66,91.28-64.28,209.87-133.18,118.59-68.9,216.89-120.97,219.57-116.32Z"/>
      <path class="st27" d="M271.92,161.43c.36.67-9.16,19.38-21.26,41.78-12.1,22.41-22.21,40.03-22.57,39.36s9.16-19.38,21.26-41.78c12.1-22.41,22.21-40.03,22.57-39.36Z"/>
      <path class="st3" d="M278.66,78.41c.82,1.18-11.34,57.47-27.17,125.73-15.83,68.26-29.32,122.64-30.14,121.46s11.34-57.47,27.17-125.73c15.83-68.26,29.32-122.64,30.14-121.46Z"/>
      <path class="st37" d="M285.91,60.9c2.21.62-12.07,64.3-31.9,142.23-19.83,77.93-37.71,140.59-39.92,139.97-2.21-.62,12.07-64.3,31.9-142.23,19.83-77.93,37.71-140.59,39.92-139.97Z"/>
      <ellipse class="st29" cx="250" cy="202" rx="12.78" ry="128.99"/>
      <path class="st5" d="M215.41,53.08c2.13-.66,19.35,65.48,38.45,147.72,19.1,82.24,32.86,149.45,30.73,150.11-2.13.66-19.35-65.48-38.45-147.72-19.1-82.24-32.86-149.45-30.73-150.11Z"/>
      <ellipse class="st15" cx="250" cy="202" rx="4.59" ry="156.72" transform="translate(-66.6 146.61) rotate(-29.02)"/>
      <path class="st22" d="M104.29,6.83c2.41-3.22,69.59,81.54,150.07,189.34,80.47,107.79,143.76,197.79,141.35,201.01-2.41,3.22-69.59-81.54-150.07-189.34C165.17,100.05,101.88,10.05,104.29,6.83Z"/>
      <path class="st31" d="M108.18,94.08c1.35-3.09,65.94,42.73,144.27,102.33,78.32,59.6,140.72,110.43,139.37,113.51-1.35,3.09-65.94-42.73-144.27-102.33-78.32-59.6-140.72-110.43-139.37-113.51Z"/>
      <path class="st25" d="M153.32,168.67c.43-2.05,44.06,11.2,97.45,29.61,53.39,18.41,96.33,34.99,95.9,37.05-.43,2.05-44.06-11.2-97.45-29.61-53.39-18.41-96.33-34.99-95.9-37.05Z"/>
      <path class="st23" d="M266.11,245.01c-1.11.41-9.22-18.5-18.11-42.26s-15.21-43.34-14.1-43.76c1.11-.41,9.22,18.5,18.11,42.26s15.21,43.34,14.1,43.76Z"/>
      <path class="st35" d="M313.01,276.83c-1.75,1.09-31.38-31.53-66.18-72.86-34.8-41.33-61.6-75.72-59.85-76.81s31.38,31.53,66.18,72.86c34.8,41.33,61.6,75.72,59.85,76.81Z"/>
      <path class="st13" d="M369.35,288.12c-1.78,1.91-56.65-35.1-122.56-82.66-65.91-47.56-117.91-87.67-116.13-89.59,1.78-1.91,56.65,35.1,122.56,82.66,65.91,47.56,117.91,87.67,116.13,89.59Z"/>
      <path class="st36" d="M328.71,196.84c-1.04.79-37.12,3.74-80.58,6.59-43.47,2.85-77.87,4.52-76.83,3.73,1.04-.79,37.12-3.74,80.58-6.59,43.47-2.85,77.87-4.52,76.83-3.73Z"/>
      <path class="st18" d="M388.82,183.13c-.91,1.29-63.8,10.78-140.46,21.2-76.67,10.42-138.08,17.83-137.17,16.54s63.8-10.78,140.46-21.2,138.08-17.83,137.17-16.54Z"/>
      <path class="st34" d="M417.87,169.67c-.08,1.91-75.3,17.94-168.01,35.79-92.71,17.85-167.8,30.78-167.72,28.86.08-1.91,75.3-17.94,168.01-35.79,92.71-17.85,167.8-30.78,167.72-28.86Z"/>
      <path class="st26" d="M446.34,128.46c.83,2.22-86.4,36.94-194.84,77.56-108.44,40.62-197.02,71.74-197.85,69.52s86.4-36.94,194.84-77.56c108.44-40.62,197.02-71.74,197.85-69.52Z"/>
      <path class="st32" d="M308.54,165.18c.58.7-25.16,17.75-57.49,38.09-32.33,20.34-59.02,36.26-59.6,35.56s25.16-17.75,57.49-38.09c32.33-20.34,59.02-36.26,59.6-35.56Z"/>
      <path class="st14" d="M402.83,30.39c4.14,3.28-60.92,82.77-145.33,177.55-84.41,94.78-156.19,168.95-160.34,165.67-4.14-3.28,60.92-82.77,145.33-177.55C326.9,101.28,398.69,27.11,402.83,30.39Z"/>
      <path class="st11" d="M334.04,83.12c2.34.57-33.39,54.26-79.81,119.91-46.41,65.66-85.94,118.42-88.27,117.85-2.34-.57,33.39-54.26,79.81-119.91,46.41-65.66,85.94-118.42,88.27-117.85Z"/>
      <path class="st17" d="M308.04,44.25c3.37.04-19.89,70.69-51.95,157.82-32.05,87.12-60.77,157.72-64.13,157.69-3.37-.04,19.89-70.69,51.95-157.82,32.05-87.12,60.77-157.72,64.13-157.69Z"/>
      <path class="st19" d="M256.67,168.3c1.09-.27-1.02,14.6-4.7,33.21-3.68,18.61-7.55,33.92-8.64,34.19-1.09.27,1.02-14.6,4.7-33.21,3.68-18.61,7.55-33.92,8.64-34.19Z"/>
    </g>
    <g id="Layer_3">
      <circle class="st28" cx="250" cy="119.06" r="31.88"/>
      <circle class="st33" cx="322.58" cy="159.66" r="15.66"/>
      <circle class="st7" cx="276.78" cy="249.52" r="18.52"/>
      <circle class="st21" cx="250" cy="286.67" r="15.55"/>
      <circle class="st1" cx="177.42" cy="244.34" r="18.04"/>
      <circle class="st20" cx="193.84" cy="202" r="28"/>
      <circle class="st4" cx="177.42" cy="159.66" r="23.33"/>
      <circle class="st2" cx="222.35" cy="153.62" r="23.33"/>
      <circle class="st8" cx="222.35" cy="249.52" r="35.65"/>
      <circle class="st6" cx="303.57" cy="202" r="19.43"/>
      <circle class="st12" cx="402.57" cy="201" r="32.59"/>
      <circle class="st30" cx="173.57" cy="334" r="32.59"/>
      <circle class="st24" cx="173.57" cy="70" r="32.59"/>
    </g>
    <g id="Layer_5">
      <rect class="st42" y="-1" width="500" height="500"/>
    </g>
  </g>
</svg>